<?xml version="1.0" encoding="UTF-8"?>
<svg version="1.1" xmlns="http://www.w3.org/2000/svg" width="90" height="90">
<path d="M0 0 C5.75702604 -0.48469807 9.28035798 1.45007033 13.9609375 4.66796875 C15.93214373 6.58637482 16.44604072 7.65590178 16.7109375 10.37109375 C16.3809375 11.03109375 16.0509375 11.69109375 15.7109375 12.37109375 C12.03668417 12.63354042 10.02223511 12.53322792 6.7109375 10.80859375 C3.13281241 9.09407548 1.47750685 9.34384756 -2.2890625 10.37109375 C-2.9490625 10.70109375 -3.6090625 11.03109375 -4.2890625 11.37109375 C-3.495 12.06589844 -2.7009375 12.76070312 -1.8828125 13.4765625 C6.31634416 21.3801821 6.31634416 21.3801821 7.03857422 26.85449219 C7.01896567 29.56650545 6.87166366 32.23082528 6.6484375 34.93359375 C5.91711739 42.59594403 5.91711739 42.59594403 9.33984375 49.17578125 C11.45147826 51.29181958 13.71420132 53.08637601 16.0859375 54.8984375 C18.7109375 57.37109375 18.7109375 57.37109375 19.0859375 60.6875 C18.9621875 61.57308594 18.8384375 62.45867187 18.7109375 63.37109375 C15.83457954 63.74097337 13.60384318 63.8980416 11.04541016 62.38818359 C9.30576634 61.00599382 7.65946106 59.56191551 6.0234375 58.05859375 C5.17168945 57.30932617 5.17168945 57.30932617 4.30273438 56.54492188 C-3.55161106 49.59295142 -3.55161106 49.59295142 -4.4765625 44.68359375 C-4.63511719 43.87535156 -4.79367188 43.06710938 -4.95703125 42.234375 C-5.06660156 41.61949219 -5.17617188 41.00460938 -5.2890625 40.37109375 C-14.72401807 43.6535973 -18.55313732 48.99355458 -22.76318359 57.62866211 C-23.82621487 59.713944 -24.78439006 61.57672358 -26.2890625 63.37109375 C-29.58203125 63.87890625 -29.58203125 63.87890625 -32.2890625 63.37109375 C-31.81048067 56.69088898 -30.51102988 51.29341754 -27.7890625 45.18359375 C-27.43956543 44.3942041 -27.09006836 43.60481445 -26.72998047 42.79150391 C-23.90106559 36.82490616 -20.71157308 32.68959342 -14.2890625 30.37109375 C-13.6290625 30.37109375 -12.9690625 30.37109375 -12.2890625 30.37109375 C-14.9290625 27.07109375 -17.5690625 23.77109375 -20.2890625 20.37109375 C-21.6503125 21.03109375 -23.0115625 21.69109375 -24.4140625 22.37109375 C-28.19912499 24.20627557 -31.07560595 24.92043619 -35.2890625 24.37109375 C-37.80859375 22.54296875 -37.80859375 22.54296875 -40.1015625 20.12109375 C-40.87113281 19.3321875 -41.64070313 18.54328125 -42.43359375 17.73046875 C-44.20451848 15.47859815 -45.05705514 14.20402568 -45.2890625 11.37109375 C-43.8515625 9.62109375 -43.8515625 9.62109375 -42.2890625 8.37109375 C-39.23162176 9.39024066 -37.49141473 10.149771 -35.2890625 12.55859375 C-33.4735456 14.62847983 -33.4735456 14.62847983 -31.14453125 14.2890625 C-27.16834063 13.01080697 -24.05499094 10.80599473 -20.6015625 8.49609375 C-13.84321562 4.13987924 -7.98093152 1.29383702 0 0 Z " fill="#000000" transform="translate(62.2890625,17.62890625)"/>
<path d="M0 0 C0.7734375 -0.00773438 1.546875 -0.01546875 2.34375 -0.0234375 C5.04583262 0.47586038 5.92075936 1.14022551 7.5 3.375 C7.8984375 5.53125 7.8984375 5.53125 7.875 7.875 C7.88273437 8.6484375 7.89046875 9.421875 7.8984375 10.21875 C7.39913962 12.92083262 6.73477449 13.79575936 4.5 15.375 C2.34375 15.7734375 2.34375 15.7734375 0 15.75 C-0.7734375 15.75773437 -1.546875 15.76546875 -2.34375 15.7734375 C-5.04583262 15.27413962 -5.92075936 14.60977449 -7.5 12.375 C-7.8984375 10.21875 -7.8984375 10.21875 -7.875 7.875 C-7.88273437 7.1015625 -7.89046875 6.328125 -7.8984375 5.53125 C-7.04925027 0.93564854 -4.36327591 -0.04363276 0 0 Z " fill="#000000" transform="translate(37.5,8.625)"/>
<path d="M0 0 C3.5625 0.3125 3.5625 0.3125 5.5 1.375 C7.15412584 4.39134711 6.86825763 6.94916608 6.5625 10.3125 C4.5625 12.3125 4.5625 12.3125 1.125 12.625 C-2.4375 12.3125 -2.4375 12.3125 -4.375 11.25 C-6.02912584 8.23365289 -5.74325763 5.67583392 -5.4375 2.3125 C-3.4375 0.3125 -3.4375 0.3125 0 0 Z " fill="#000000" transform="translate(11.4375,14.6875)"/>
<path d="M0 0 C1.98 0 3.96 0 6 0 C6 1.98 6 3.96 6 6 C4.02 6 2.04 6 0 6 C0 4.02 0 2.04 0 0 Z " fill="#000000" transform="translate(6,36)"/>
</svg>
