<?xml version="1.0" encoding="iso-8859-1"?>
<!-- Uploaded to: SVG Repo, www.svgrepo.com, Generator: SVG Repo Mixer Tools -->
<svg height="100px" width="100px" version="1.1" id="Capa_1" class="animate-pingpong dark:fill-white" xmlns="http://www.w3.org/2000/svg" xmlns:xlink="http://www.w3.org/1999/xlink" 
	 viewBox="0 0 51.675 51.675" xml:space="preserve">
<g>
	<g>
		<path style="fill:#010002;" d="M50.459,39.237c-5.219-3.24-9.514-7.976-13.668-12.526c-0.199-0.392-0.484-0.772-0.879-1.13
			c-2.6-2.352-4.873-5.009-7.166-7.648c2.904-2.792,5.904-5.479,9.017-8.041c2.565-2.113-1.101-5.734-3.642-3.641
			c-3.467,2.851-6.789,5.858-9.999,8.995c-0.851,0.121-1.667,0.496-2.257,1.096c-0.15,0.152-0.279,0.313-0.397,0.477
			c-0.692,0.385-1.185,1.102-1.149,2.154c0.063,1.842,0.105,4.114-1.263,5.542c-1.31,1.369-3.894,0.653-5.434,0.214
			c-1.098-0.312-1.978,0.068-2.532,0.737L9.978,25.22c-0.004-2.06-1.43-3.914-3.523-4.375c-2.423-0.533-5.851,0.999-6.384,3.421
			c-0.532,2.422,2.029,4.82,4.452,5.351c2.095,0.461,4.168-0.623,5.036-2.49l0.88,0.193c0.004,1.018,0.552,2.016,1.816,2.374
			c3.353,0.952,7.038,1.174,9.916-1.091c1.21-0.953,2.003-2.213,2.513-3.604c1.594,1.825,3.215,3.625,4.969,5.299
			c-3.535,3.053-5.447,7.771-6.493,12.535c-0.711,3.235,4.254,4.612,4.967,1.369c1.016-4.626,2.699-9.586,7.265-11.436
			c3.791,4.056,7.787,8.007,12.47,10.914C50.691,45.442,53.276,40.985,50.459,39.237z"/>
		<circle style="fill:#010002;" cx="17.929" cy="13.049" r="4.635"/>
		<circle style="fill:#010002;" cx="9.357" cy="19.493" r="1.631"/>
	</g>
</g>
</svg>